# xmcd
#
# Track frame offsets: 
#        150
#        14550
#        23479
#        54402
#        76551
#        89153
#        104519
#        121915
#        140188
#        161199
#        185834
#        198413
#        220650
#        241800
#        256177
#        279996
#        291319
#
# Disc length: 4205 seconds
#
# Revision: 1
# Processed by: cddbd v1.5.2PL0 Copyright (c) Steve Scherf et al.
# Submitted via: ExactAudioCopy v0.99pb5
#
DISCID=f5106b11
DTITLE=Various Artist - Amplificador Novissima Musica Brasileira The Brazilia
DTITLE=n 10's Generation
DYEAR=2015
DGENRE=Funk
TTITLE0=Ive Seixas - Cervejas Populares
TTITLE1=Passo Torto - Faria Lima Pra Ca
TTITLE2=Abayomy - Obatala
TTITLE3=Iconili - O Rei De Tupanga
TTITLE4=Luziluzia - Summertime
TTITLE5=The Baggios - Esturra Leao
TTITLE6=Fino Coletivo - Iracema
TTITLE7=Zulumbi - Zulumbi
TTITLE8=Andre Sampaio E Os Afromandinga - Ecos De Niafunke
TTITLE9=Amplexos - Leao
TTITLE10=Burro Morto - Lucifer Colombia
TTITLE11=Zebrabeat Afro-Amazonia Orquestra - Zebrabeat
TTITLE12=DJ Dolores - O Amor Vai...
TTITLE13=Os Sertoes - Flor Da Saudade
TTITLE14=Aeromocas E Tenistas Russas - Kilimanjaro Dub
TTITLE15=Fabricio - Feito Tamborim, Para Ceu
TTITLE16=Motormama - Rio Grande
EXTD=
EXTT0=
EXTT1=
EXTT2=
EXTT3=
EXTT4=
EXTT5=
EXTT6=
EXTT7=
EXTT8=
EXTT9=
EXTT10=
EXTT11=
EXTT12=
EXTT13=
EXTT14=
EXTT15=
EXTT16=
PLAYORDER=
